<?xml version="1.0" encoding="UTF-8" standalone="no"?>
<!DOCTYPE svg PUBLIC "-//W3C//DTD SVG 1.1//EN"
 "http://www.w3.org/Graphics/SVG/1.1/DTD/svg11.dtd">
<!-- Generated by graphviz version 12.1.1 (20240910.0053)
 -->
<!-- Pages: 1 -->
<svg width="308pt" height="152pt"
 viewBox="0.00 0.00 308.25 152.00" xmlns="http://www.w3.org/2000/svg" xmlns:xlink="http://www.w3.org/1999/xlink">
<g id="graph0" class="graph" transform="scale(1 1) rotate(0) translate(4 148)">
<polygon fill="white" stroke="none" points="-4,4 -4,-148 304.25,-148 304.25,4 -4,4"/>
<!-- Team0 -->
<g id="node1" class="node">
<title>Team0</title>
<polygon fill="none" stroke="black" points="102.25,-144 0,-144 0,-108 102.25,-108 102.25,-144"/>
<text text-anchor="middle" x="51.12" y="-120.95" font-family="Times New Roman,serif" font-size="14.00">INFO6A (0 pts)</text>
</g>
<!-- Match0_0 -->
<g id="node3" class="node">
<title>Match0_0</title>
<ellipse fill="none" stroke="black" cx="273.25" cy="-72" rx="27" ry="18"/>
</g>
<!-- Team0&#45;&gt;Match0_0 -->
<g id="edge1" class="edge">
<title>Team0&#45;&gt;Match0_0</title>
<path fill="none" stroke="black" d="M102.63,-113.61C143.52,-103.58 200.1,-89.7 236.44,-80.78"/>
<polygon fill="black" stroke="black" points="237.14,-84.22 246.01,-78.44 235.47,-77.42 237.14,-84.22"/>
</g>
<!-- Team1 -->
<g id="node2" class="node">
<title>Team1</title>
<polygon fill="none" stroke="black" points="102.25,-36 0,-36 0,0 102.25,0 102.25,-36"/>
<text text-anchor="middle" x="51.12" y="-12.95" font-family="Times New Roman,serif" font-size="14.00">INFO3A (0 pts)</text>
</g>
<!-- Team1&#45;&gt;Match0_0 -->
<g id="edge2" class="edge">
<title>Team1&#45;&gt;Match0_0</title>
<path fill="none" stroke="black" d="M102.63,-30.39C143.52,-40.42 200.1,-54.3 236.44,-63.22"/>
<polygon fill="black" stroke="black" points="235.47,-66.58 246.01,-65.56 237.14,-59.78 235.47,-66.58"/>
</g>
</g>
</svg>
