<?xml version="1.0" encoding="UTF-8" standalone="no"?>
<!DOCTYPE svg PUBLIC "-//W3C//DTD SVG 1.1//EN"
 "http://www.w3.org/Graphics/SVG/1.1/DTD/svg11.dtd">
<!-- Generated by graphviz version 2.43.0 (0)
 -->
<!-- Title: %3 Pages: 1 -->
<svg width="591pt" height="508pt"
 viewBox="0.00 0.00 591.19 508.00" xmlns="http://www.w3.org/2000/svg" xmlns:xlink="http://www.w3.org/1999/xlink">
<g id="graph0" class="graph" transform="scale(1 1) rotate(0) translate(4 504)">
<title>%3</title>
<polygon fill="white" stroke="transparent" points="-4,4 -4,-504 587.19,-504 587.19,4 -4,4"/>
<!-- Left_Match0_0 -->
<g id="node1" class="node">
<title>Left_Match0_0</title>
<path fill="none" stroke="black" d="M306.69,-94C306.69,-94 174.69,-94 174.69,-94 168.69,-94 162.69,-88 162.69,-82 162.69,-82 162.69,-70 162.69,-70 162.69,-64 168.69,-58 174.69,-58 174.69,-58 306.69,-58 306.69,-58 312.69,-58 318.69,-64 318.69,-70 318.69,-70 318.69,-82 318.69,-82 318.69,-88 312.69,-94 306.69,-94"/>
<text text-anchor="middle" x="240.69" y="-72.3" font-family="Times,serif" font-size="14.00">INFO6A vs INFO2B</text>
</g>
<!-- Left_Merge1_0 -->
<g id="node13" class="node">
<title>Left_Merge1_0</title>
<ellipse fill="black" stroke="black" cx="406.19" cy="-105" rx="0" ry="0"/>
</g>
<!-- Left_Match0_0&#45;&gt;Left_Merge1_0 -->
<g id="edge9" class="edge">
<title>Left_Match0_0&#45;&gt;Left_Merge1_0</title>
<path fill="none" stroke="black" d="M319.13,-89.74C348.87,-95.01 379.38,-100.42 394.84,-103.16"/>
<polygon fill="black" stroke="black" points="394.6,-106.68 405.06,-104.98 395.83,-99.78 394.6,-106.68"/>
</g>
<!-- TeamL0 -->
<g id="node2" class="node">
<title>TeamL0</title>
<path fill="none" stroke="black" d="M86.09,-94C86.09,-94 36.09,-94 36.09,-94 30.09,-94 24.09,-88 24.09,-82 24.09,-82 24.09,-70 24.09,-70 24.09,-64 30.09,-58 36.09,-58 36.09,-58 86.09,-58 86.09,-58 92.09,-58 98.09,-64 98.09,-70 98.09,-70 98.09,-82 98.09,-82 98.09,-88 92.09,-94 86.09,-94"/>
<text text-anchor="middle" x="61.09" y="-72.3" font-family="Times,serif" font-size="14.00">INFO6A</text>
</g>
<!-- TeamL0&#45;&gt;Left_Match0_0 -->
<g id="edge1" class="edge">
<title>TeamL0&#45;&gt;Left_Match0_0</title>
<path fill="none" stroke="black" d="M98.46,-76C114.12,-76 133.16,-76 152.13,-76"/>
<polygon fill="black" stroke="black" points="152.33,-79.5 162.33,-76 152.33,-72.5 152.33,-79.5"/>
</g>
<!-- TeamL1 -->
<g id="node3" class="node">
<title>TeamL1</title>
<path fill="none" stroke="black" d="M86.09,-36C86.09,-36 36.09,-36 36.09,-36 30.09,-36 24.09,-30 24.09,-24 24.09,-24 24.09,-12 24.09,-12 24.09,-6 30.09,0 36.09,0 36.09,0 86.09,0 86.09,0 92.09,0 98.09,-6 98.09,-12 98.09,-12 98.09,-24 98.09,-24 98.09,-30 92.09,-36 86.09,-36"/>
<text text-anchor="middle" x="61.09" y="-14.3" font-family="Times,serif" font-size="14.00">INFO2B</text>
</g>
<!-- TeamL1&#45;&gt;Left_Match0_0 -->
<g id="edge2" class="edge">
<title>TeamL1&#45;&gt;Left_Match0_0</title>
<path fill="none" stroke="black" d="M98.46,-29.88C120.42,-37.05 149.04,-46.39 174.77,-54.8"/>
<polygon fill="black" stroke="black" points="173.87,-58.19 184.47,-57.97 176.05,-51.53 173.87,-58.19"/>
</g>
<!-- Left_Match0_1 -->
<g id="node4" class="node">
<title>Left_Match0_1</title>
<path fill="none" stroke="black" d="M309.19,-152C309.19,-152 172.19,-152 172.19,-152 166.19,-152 160.19,-146 160.19,-140 160.19,-140 160.19,-128 160.19,-128 160.19,-122 166.19,-116 172.19,-116 172.19,-116 309.19,-116 309.19,-116 315.19,-116 321.19,-122 321.19,-128 321.19,-128 321.19,-140 321.19,-140 321.19,-146 315.19,-152 309.19,-152"/>
<text text-anchor="middle" x="240.69" y="-130.3" font-family="Times,serif" font-size="14.00">INFO4B vs AGRO6B</text>
</g>
<!-- Left_Match0_1&#45;&gt;Left_Merge1_0 -->
<g id="edge10" class="edge">
<title>Left_Match0_1&#45;&gt;Left_Merge1_0</title>
<path fill="none" stroke="black" d="M321.52,-119.84C350.74,-114.66 380.27,-109.42 395.21,-106.77"/>
<polygon fill="black" stroke="black" points="395.83,-110.21 405.07,-105.02 394.61,-103.32 395.83,-110.21"/>
</g>
<!-- TeamL2 -->
<g id="node5" class="node">
<title>TeamL2</title>
<path fill="none" stroke="black" d="M86.09,-210C86.09,-210 36.09,-210 36.09,-210 30.09,-210 24.09,-204 24.09,-198 24.09,-198 24.09,-186 24.09,-186 24.09,-180 30.09,-174 36.09,-174 36.09,-174 86.09,-174 86.09,-174 92.09,-174 98.09,-180 98.09,-186 98.09,-186 98.09,-198 98.09,-198 98.09,-204 92.09,-210 86.09,-210"/>
<text text-anchor="middle" x="61.09" y="-188.3" font-family="Times,serif" font-size="14.00">INFO4B</text>
</g>
<!-- TeamL2&#45;&gt;Left_Match0_1 -->
<g id="edge3" class="edge">
<title>TeamL2&#45;&gt;Left_Match0_1</title>
<path fill="none" stroke="black" d="M98.46,-180.12C120.42,-172.95 149.04,-163.61 174.77,-155.2"/>
<polygon fill="black" stroke="black" points="176.05,-158.47 184.47,-152.03 173.87,-151.81 176.05,-158.47"/>
</g>
<!-- TeamL3 -->
<g id="node6" class="node">
<title>TeamL3</title>
<path fill="none" stroke="black" d="M88.59,-152C88.59,-152 33.59,-152 33.59,-152 27.59,-152 21.59,-146 21.59,-140 21.59,-140 21.59,-128 21.59,-128 21.59,-122 27.59,-116 33.59,-116 33.59,-116 88.59,-116 88.59,-116 94.59,-116 100.59,-122 100.59,-128 100.59,-128 100.59,-140 100.59,-140 100.59,-146 94.59,-152 88.59,-152"/>
<text text-anchor="middle" x="61.09" y="-130.3" font-family="Times,serif" font-size="14.00">AGRO6B</text>
</g>
<!-- TeamL3&#45;&gt;Left_Match0_1 -->
<g id="edge4" class="edge">
<title>TeamL3&#45;&gt;Left_Match0_1</title>
<path fill="none" stroke="black" d="M100.63,-134C115.21,-134 132.49,-134 149.83,-134"/>
<polygon fill="black" stroke="black" points="150.02,-137.5 160.02,-134 150.02,-130.5 150.02,-137.5"/>
</g>
<!-- Right_Match0_0 -->
<g id="node7" class="node">
<title>Right_Match0_0</title>
<path fill="none" stroke="black" d="M311.19,-326C311.19,-326 170.19,-326 170.19,-326 164.19,-326 158.19,-320 158.19,-314 158.19,-314 158.19,-302 158.19,-302 158.19,-296 164.19,-290 170.19,-290 170.19,-290 311.19,-290 311.19,-290 317.19,-290 323.19,-296 323.19,-302 323.19,-302 323.19,-314 323.19,-314 323.19,-320 317.19,-326 311.19,-326"/>
<text text-anchor="middle" x="240.69" y="-304.3" font-family="Times,serif" font-size="14.00">AGRO2B vs AGRO4A</text>
</g>
<!-- Right_Merge1_0 -->
<g id="node15" class="node">
<title>Right_Merge1_0</title>
<ellipse fill="black" stroke="black" cx="406.19" cy="-337" rx="0" ry="0"/>
</g>
<!-- Right_Match0_0&#45;&gt;Right_Merge1_0 -->
<g id="edge12" class="edge">
<title>Right_Match0_0&#45;&gt;Right_Merge1_0</title>
<path fill="none" stroke="black" d="M323.44,-322.5C351.9,-327.55 380.36,-332.6 395.02,-335.2"/>
<polygon fill="black" stroke="black" points="394.61,-338.68 405.07,-336.98 395.84,-331.79 394.61,-338.68"/>
</g>
<!-- TeamR0 -->
<g id="node8" class="node">
<title>TeamR0</title>
<path fill="none" stroke="black" d="M88.59,-326C88.59,-326 33.59,-326 33.59,-326 27.59,-326 21.59,-320 21.59,-314 21.59,-314 21.59,-302 21.59,-302 21.59,-296 27.59,-290 33.59,-290 33.59,-290 88.59,-290 88.59,-290 94.59,-290 100.59,-296 100.59,-302 100.59,-302 100.59,-314 100.59,-314 100.59,-320 94.59,-326 88.59,-326"/>
<text text-anchor="middle" x="61.09" y="-304.3" font-family="Times,serif" font-size="14.00">AGRO2B</text>
</g>
<!-- TeamR0&#45;&gt;Right_Match0_0 -->
<g id="edge5" class="edge">
<title>TeamR0&#45;&gt;Right_Match0_0</title>
<path fill="none" stroke="black" d="M100.63,-308C114.57,-308 130.97,-308 147.53,-308"/>
<polygon fill="black" stroke="black" points="147.84,-311.5 157.84,-308 147.84,-304.5 147.84,-311.5"/>
</g>
<!-- TeamR1 -->
<g id="node9" class="node">
<title>TeamR1</title>
<path fill="none" stroke="black" d="M88.09,-268C88.09,-268 34.09,-268 34.09,-268 28.09,-268 22.09,-262 22.09,-256 22.09,-256 22.09,-244 22.09,-244 22.09,-238 28.09,-232 34.09,-232 34.09,-232 88.09,-232 88.09,-232 94.09,-232 100.09,-238 100.09,-244 100.09,-244 100.09,-256 100.09,-256 100.09,-262 94.09,-268 88.09,-268"/>
<text text-anchor="middle" x="61.09" y="-246.3" font-family="Times,serif" font-size="14.00">AGRO4A</text>
</g>
<!-- TeamR1&#45;&gt;Right_Match0_0 -->
<g id="edge6" class="edge">
<title>TeamR1&#45;&gt;Right_Match0_0</title>
<path fill="none" stroke="black" d="M100.19,-262.44C121.88,-269.52 149.63,-278.59 174.66,-286.76"/>
<polygon fill="black" stroke="black" points="173.87,-290.19 184.46,-289.96 176.04,-283.53 173.87,-290.19"/>
</g>
<!-- Right_Match0_1 -->
<g id="node10" class="node">
<title>Right_Match0_1</title>
<path fill="none" stroke="black" d="M308.69,-384C308.69,-384 172.69,-384 172.69,-384 166.69,-384 160.69,-378 160.69,-372 160.69,-372 160.69,-360 160.69,-360 160.69,-354 166.69,-348 172.69,-348 172.69,-348 308.69,-348 308.69,-348 314.69,-348 320.69,-354 320.69,-360 320.69,-360 320.69,-372 320.69,-372 320.69,-378 314.69,-384 308.69,-384"/>
<text text-anchor="middle" x="240.69" y="-362.3" font-family="Times,serif" font-size="14.00">AGRO2A vs INFO2A</text>
</g>
<!-- Right_Match0_1&#45;&gt;Right_Merge1_0 -->
<g id="edge13" class="edge">
<title>Right_Match0_1&#45;&gt;Right_Merge1_0</title>
<path fill="none" stroke="black" d="M321.04,-351.92C350.37,-346.72 380.1,-341.45 395.14,-338.78"/>
<polygon fill="black" stroke="black" points="395.83,-342.21 405.07,-337.02 394.61,-335.32 395.83,-342.21"/>
</g>
<!-- TeamR2 -->
<g id="node11" class="node">
<title>TeamR2</title>
<path fill="none" stroke="black" d="M88.09,-442C88.09,-442 34.09,-442 34.09,-442 28.09,-442 22.09,-436 22.09,-430 22.09,-430 22.09,-418 22.09,-418 22.09,-412 28.09,-406 34.09,-406 34.09,-406 88.09,-406 88.09,-406 94.09,-406 100.09,-412 100.09,-418 100.09,-418 100.09,-430 100.09,-430 100.09,-436 94.09,-442 88.09,-442"/>
<text text-anchor="middle" x="61.09" y="-420.3" font-family="Times,serif" font-size="14.00">AGRO2A</text>
</g>
<!-- TeamR2&#45;&gt;Right_Match0_1 -->
<g id="edge7" class="edge">
<title>TeamR2&#45;&gt;Right_Match0_1</title>
<path fill="none" stroke="black" d="M100.19,-411.56C121.88,-404.48 149.63,-395.41 174.66,-387.24"/>
<polygon fill="black" stroke="black" points="176.04,-390.47 184.46,-384.04 173.87,-383.81 176.04,-390.47"/>
</g>
<!-- TeamR3 -->
<g id="node12" class="node">
<title>TeamR3</title>
<path fill="none" stroke="black" d="M86.09,-384C86.09,-384 36.09,-384 36.09,-384 30.09,-384 24.09,-378 24.09,-372 24.09,-372 24.09,-360 24.09,-360 24.09,-354 30.09,-348 36.09,-348 36.09,-348 86.09,-348 86.09,-348 92.09,-348 98.09,-354 98.09,-360 98.09,-360 98.09,-372 98.09,-372 98.09,-378 92.09,-384 86.09,-384"/>
<text text-anchor="middle" x="61.09" y="-362.3" font-family="Times,serif" font-size="14.00">INFO2A</text>
</g>
<!-- TeamR3&#45;&gt;Right_Match0_1 -->
<g id="edge8" class="edge">
<title>TeamR3&#45;&gt;Right_Match0_1</title>
<path fill="none" stroke="black" d="M98.46,-366C113.62,-366 131.95,-366 150.31,-366"/>
<polygon fill="black" stroke="black" points="150.5,-369.5 160.5,-366 150.5,-362.5 150.5,-369.5"/>
</g>
<!-- Left_Match1_0 -->
<g id="node14" class="node">
<title>Left_Match1_0</title>
<path fill="none" stroke="black" d="M571.19,-123C571.19,-123 501.19,-123 501.19,-123 495.19,-123 489.19,-117 489.19,-111 489.19,-111 489.19,-99 489.19,-99 489.19,-93 495.19,-87 501.19,-87 501.19,-87 571.19,-87 571.19,-87 577.19,-87 583.19,-93 583.19,-99 583.19,-99 583.19,-111 583.19,-111 583.19,-117 577.19,-123 571.19,-123"/>
<text text-anchor="middle" x="536.19" y="-101.3" font-family="Times,serif" font-size="14.00">Por Definir</text>
</g>
<!-- Left_Merge1_0&#45;&gt;Left_Match1_0 -->
<g id="edge11" class="edge">
<title>Left_Merge1_0&#45;&gt;Left_Match1_0</title>
<path fill="none" stroke="black" d="M407.28,-105C409.35,-105 445.52,-105 478.87,-105"/>
<polygon fill="black" stroke="black" points="479.09,-108.5 489.09,-105 479.09,-101.5 479.09,-108.5"/>
</g>
<!-- Right_Match1_0 -->
<g id="node16" class="node">
<title>Right_Match1_0</title>
<path fill="none" stroke="black" d="M571.19,-355C571.19,-355 501.19,-355 501.19,-355 495.19,-355 489.19,-349 489.19,-343 489.19,-343 489.19,-331 489.19,-331 489.19,-325 495.19,-319 501.19,-319 501.19,-319 571.19,-319 571.19,-319 577.19,-319 583.19,-325 583.19,-331 583.19,-331 583.19,-343 583.19,-343 583.19,-349 577.19,-355 571.19,-355"/>
<text text-anchor="middle" x="536.19" y="-333.3" font-family="Times,serif" font-size="14.00">Por Definir</text>
</g>
<!-- Right_Merge1_0&#45;&gt;Right_Match1_0 -->
<g id="edge14" class="edge">
<title>Right_Merge1_0&#45;&gt;Right_Match1_0</title>
<path fill="none" stroke="black" d="M407.28,-337C409.35,-337 445.52,-337 478.87,-337"/>
<polygon fill="black" stroke="black" points="479.09,-340.5 489.09,-337 479.09,-333.5 479.09,-340.5"/>
</g>
<!-- Center_Merge -->
<g id="node17" class="node">
<title>Center_Merge</title>
<ellipse fill="black" stroke="black" cx="240.69" cy="-482" rx="0" ry="0"/>
</g>
<!-- Final_Match -->
<g id="node19" class="node">
<title>Final_Match</title>
<path fill="none" stroke="black" d="M441.19,-500C441.19,-500 371.19,-500 371.19,-500 365.19,-500 359.19,-494 359.19,-488 359.19,-488 359.19,-476 359.19,-476 359.19,-470 365.19,-464 371.19,-464 371.19,-464 441.19,-464 441.19,-464 447.19,-464 453.19,-470 453.19,-476 453.19,-476 453.19,-488 453.19,-488 453.19,-494 447.19,-500 441.19,-500"/>
<text text-anchor="middle" x="406.19" y="-478.3" font-family="Times,serif" font-size="14.00">Por Definir</text>
</g>
<!-- Center_Merge&#45;&gt;Final_Match -->
<g id="edge17" class="edge">
<title>Center_Merge&#45;&gt;Final_Match</title>
<path fill="none" stroke="black" d="M241.81,-482C244.77,-482 302.85,-482 348.92,-482"/>
<polygon fill="black" stroke="black" points="349.14,-485.5 359.14,-482 349.14,-478.5 349.14,-485.5"/>
</g>
<!-- Por Definir -->
<g id="node18" class="node">
<title>Por Definir</title>
<ellipse fill="none" stroke="black" cx="61.09" cy="-482" rx="61.19" ry="18"/>
<text text-anchor="middle" x="61.09" y="-478.3" font-family="Times,serif" font-size="14.00">Por Definir</text>
</g>
<!-- Por Definir&#45;&gt;Center_Merge -->
<g id="edge15" class="edge">
<title>Por Definir&#45;&gt;Center_Merge</title>
<path fill="none" stroke="black" d="M116.83,-474.32C157.36,-472.9 209.05,-474.13 230.11,-478.01"/>
<polygon fill="black" stroke="black" points="229.05,-481.35 239.64,-481.68 231.57,-474.82 229.05,-481.35"/>
</g>
<!-- Por Definir&#45;&gt;Center_Merge -->
<g id="edge16" class="edge">
<title>Por Definir&#45;&gt;Center_Merge</title>
<path fill="none" stroke="black" d="M116.83,-489.68C157.36,-491.1 209.05,-489.87 230.11,-485.99"/>
<polygon fill="black" stroke="black" points="231.57,-489.18 239.64,-482.32 229.05,-482.65 231.57,-489.18"/>
</g>
</g>
</svg>
