<?xml version="1.0" encoding="UTF-8" standalone="no"?>
<!DOCTYPE svg PUBLIC "-//W3C//DTD SVG 1.1//EN"
 "http://www.w3.org/Graphics/SVG/1.1/DTD/svg11.dtd">
<!-- Generated by graphviz version 2.43.0 (0)
 -->
<!-- Title: %3 Pages: 1 -->
<svg width="346pt" height="152pt"
 viewBox="0.00 0.00 346.00 152.00" xmlns="http://www.w3.org/2000/svg" xmlns:xlink="http://www.w3.org/1999/xlink">
<g id="graph0" class="graph" transform="scale(1 1) rotate(0) translate(4 148)">
<title>%3</title>
<polygon fill="white" stroke="transparent" points="-4,4 -4,-148 342,-148 342,4 -4,4"/>
<!-- Match0_0 -->
<g id="node1" class="node">
<title>Match0_0</title>
<polygon fill="none" stroke="black" points="338,-90 182,-90 182,-54 338,-54 338,-90"/>
<text text-anchor="middle" x="260" y="-68.3" font-family="Times,serif" font-size="14.00">INFO6A vs INFO4B</text>
</g>
<!-- Team0 -->
<g id="node2" class="node">
<title>Team0</title>
<polygon fill="none" stroke="black" points="74,-144 0,-144 0,-108 74,-108 74,-144"/>
<text text-anchor="middle" x="37" y="-122.3" font-family="Times,serif" font-size="14.00">INFO6A</text>
</g>
<!-- Team0&#45;&gt;Match0_0 -->
<g id="edge1" class="edge">
<title>Team0&#45;&gt;Match0_0</title>
<path fill="none" stroke="black" d="M74.49,-117.08C101.95,-110.37 140.69,-100.91 175.58,-92.38"/>
<polygon fill="black" stroke="black" points="176.43,-95.78 185.31,-90.01 174.76,-88.98 176.43,-95.78"/>
</g>
<!-- Team1 -->
<g id="node3" class="node">
<title>Team1</title>
<polygon fill="none" stroke="black" points="74,-36 0,-36 0,0 74,0 74,-36"/>
<text text-anchor="middle" x="37" y="-14.3" font-family="Times,serif" font-size="14.00">INFO4B</text>
</g>
<!-- Team1&#45;&gt;Match0_0 -->
<g id="edge2" class="edge">
<title>Team1&#45;&gt;Match0_0</title>
<path fill="none" stroke="black" d="M74.49,-26.92C101.95,-33.63 140.69,-43.09 175.58,-51.62"/>
<polygon fill="black" stroke="black" points="174.76,-55.02 185.31,-53.99 176.43,-48.22 174.76,-55.02"/>
</g>
</g>
</svg>
