<?xml version="1.0" encoding="UTF-8" standalone="no"?>
<!DOCTYPE svg PUBLIC "-//W3C//DTD SVG 1.1//EN"
 "http://www.w3.org/Graphics/SVG/1.1/DTD/svg11.dtd">
<!-- Generated by graphviz version 12.1.1 (20240910.0053)
 -->
<!-- Pages: 1 -->
<svg width="310pt" height="152pt"
 viewBox="0.00 0.00 310.00 152.00" xmlns="http://www.w3.org/2000/svg" xmlns:xlink="http://www.w3.org/1999/xlink">
<g id="graph0" class="graph" transform="scale(1 1) rotate(0) translate(4 148)">
<polygon fill="white" stroke="none" points="-4,4 -4,-148 306,-148 306,4 -4,4"/>
<!-- Match0_0 -->
<g id="node1" class="node">
<title>Match0_0</title>
<polygon fill="none" stroke="black" points="302,-90 172,-90 172,-54 302,-54 302,-90"/>
<text text-anchor="middle" x="237" y="-66.95" font-family="Times New Roman,serif" font-size="14.00">INFO6A vs INFO4B</text>
</g>
<!-- Team0 -->
<g id="node2" class="node">
<title>Team0</title>
<polygon fill="none" stroke="black" points="64,-144 0,-144 0,-108 64,-108 64,-144"/>
<text text-anchor="middle" x="32" y="-120.95" font-family="Times New Roman,serif" font-size="14.00">INFO6A</text>
</g>
<!-- Team0&#45;&gt;Match0_0 -->
<g id="edge1" class="edge">
<title>Team0&#45;&gt;Match0_0</title>
<path fill="none" stroke="black" d="M64.27,-117.68C90.07,-110.82 127.72,-100.8 161.21,-91.9"/>
<polygon fill="black" stroke="black" points="161.68,-95.39 170.45,-89.44 159.88,-88.63 161.68,-95.39"/>
</g>
<!-- Team1 -->
<g id="node3" class="node">
<title>Team1</title>
<polygon fill="none" stroke="black" points="63.62,-36 0.38,-36 0.38,0 63.62,0 63.62,-36"/>
<text text-anchor="middle" x="32" y="-12.95" font-family="Times New Roman,serif" font-size="14.00">INFO4B</text>
</g>
<!-- Team1&#45;&gt;Match0_0 -->
<g id="edge2" class="edge">
<title>Team1&#45;&gt;Match0_0</title>
<path fill="none" stroke="black" d="M63.83,-26.2C89.55,-33.04 127.29,-43.08 160.89,-52.02"/>
<polygon fill="black" stroke="black" points="159.61,-55.3 170.17,-54.49 161.41,-48.54 159.61,-55.3"/>
</g>
</g>
</svg>
