<?xml version="1.0" encoding="UTF-8" standalone="no"?>
<!DOCTYPE svg PUBLIC "-//W3C//DTD SVG 1.1//EN"
 "http://www.w3.org/Graphics/SVG/1.1/DTD/svg11.dtd">
<!-- Generated by graphviz version 12.1.1 (20240910.0053)
 -->
<!-- Pages: 1 -->
<svg width="648pt" height="584pt"
 viewBox="0.00 0.00 648.25 584.00" xmlns="http://www.w3.org/2000/svg" xmlns:xlink="http://www.w3.org/1999/xlink">
<g id="graph0" class="graph" transform="scale(1 1) rotate(0) translate(4 580)">
<polygon fill="white" stroke="none" points="-4,4 -4,-580 644.25,-580 644.25,4 -4,4"/>
<!-- Match0_0 -->
<g id="node1" class="node">
<title>Match0_0</title>
<polygon fill="none" stroke="black" points="312.88,-144 182.12,-144 182.12,-108 312.88,-108 312.88,-144"/>
<text text-anchor="middle" x="247.5" y="-120.95" font-family="Times New Roman,serif" font-size="14.00">INFO6A vs INFO3A</text>
</g>
<!-- Match1_0 -->
<g id="node11" class="node">
<title>Match1_0</title>
<polygon fill="none" stroke="black" points="478.25,-252 424.25,-252 424.25,-216 478.25,-216 478.25,-252"/>
</g>
<!-- Match0_0&#45;&gt;Match1_0 -->
<g id="edge7" class="edge">
<title>Match0_0&#45;&gt;Match1_0</title>
<path fill="none" stroke="black" d="M282.72,-144.32C319.2,-163.85 376.73,-194.65 413.98,-214.58"/>
<polygon fill="black" stroke="black" points="412.11,-217.55 422.58,-219.19 415.41,-211.38 412.11,-217.55"/>
</g>
<!-- Team0 -->
<g id="node2" class="node">
<title>Team0</title>
<polygon fill="none" stroke="black" points="67.38,-144 3.38,-144 3.38,-108 67.38,-108 67.38,-144"/>
<text text-anchor="middle" x="35.38" y="-120.95" font-family="Times New Roman,serif" font-size="14.00">INFO6A</text>
</g>
<!-- Team0&#45;&gt;Match0_0 -->
<g id="edge1" class="edge">
<title>Team0&#45;&gt;Match0_0</title>
<path fill="none" stroke="black" d="M67.83,-126C94.9,-126 135.06,-126 170.46,-126"/>
<polygon fill="black" stroke="black" points="170.25,-129.5 180.25,-126 170.25,-122.5 170.25,-129.5"/>
</g>
<!-- Team1 -->
<g id="node3" class="node">
<title>Team1</title>
<polygon fill="none" stroke="black" points="67.38,-36 3.38,-36 3.38,0 67.38,0 67.38,-36"/>
<text text-anchor="middle" x="35.38" y="-12.95" font-family="Times New Roman,serif" font-size="14.00">INFO3A</text>
</g>
<!-- Team1&#45;&gt;Match0_0 -->
<g id="edge2" class="edge">
<title>Team1&#45;&gt;Match0_0</title>
<path fill="none" stroke="black" d="M67.83,-34.17C103.01,-52.25 160.31,-81.7 200.51,-102.36"/>
<polygon fill="black" stroke="black" points="198.76,-105.4 209.25,-106.85 201.96,-99.17 198.76,-105.4"/>
</g>
<!-- Match0_1 -->
<g id="node4" class="node">
<title>Match0_1</title>
<polygon fill="none" stroke="black" points="316.25,-252 178.75,-252 178.75,-216 316.25,-216 316.25,-252"/>
<text text-anchor="middle" x="247.5" y="-228.95" font-family="Times New Roman,serif" font-size="14.00">AGRO1A vs INFO1A</text>
</g>
<!-- Match0_1&#45;&gt;Match1_0 -->
<g id="edge8" class="edge">
<title>Match0_1&#45;&gt;Match1_0</title>
<path fill="none" stroke="black" d="M316.52,-234C348.61,-234 385.67,-234 412.63,-234"/>
<polygon fill="black" stroke="black" points="412.37,-237.5 422.37,-234 412.37,-230.5 412.37,-237.5"/>
</g>
<!-- Team2 -->
<g id="node5" class="node">
<title>Team2</title>
<polygon fill="none" stroke="black" points="70.75,-360 0,-360 0,-324 70.75,-324 70.75,-360"/>
<text text-anchor="middle" x="35.38" y="-336.95" font-family="Times New Roman,serif" font-size="14.00">AGRO1A</text>
</g>
<!-- Team2&#45;&gt;Match0_1 -->
<g id="edge3" class="edge">
<title>Team2&#45;&gt;Match0_1</title>
<path fill="none" stroke="black" d="M71.07,-324.17C106.49,-305.96 161.65,-277.61 200.65,-257.56"/>
<polygon fill="black" stroke="black" points="202.06,-260.78 209.35,-253.09 198.86,-254.55 202.06,-260.78"/>
</g>
<!-- Team3 -->
<g id="node6" class="node">
<title>Team3</title>
<polygon fill="none" stroke="black" points="67.38,-252 3.38,-252 3.38,-216 67.38,-216 67.38,-252"/>
<text text-anchor="middle" x="35.38" y="-228.95" font-family="Times New Roman,serif" font-size="14.00">INFO1A</text>
</g>
<!-- Team3&#45;&gt;Match0_1 -->
<g id="edge4" class="edge">
<title>Team3&#45;&gt;Match0_1</title>
<path fill="none" stroke="black" d="M67.83,-234C94.07,-234 132.62,-234 167.2,-234"/>
<polygon fill="black" stroke="black" points="166.76,-237.5 176.76,-234 166.76,-230.5 166.76,-237.5"/>
</g>
<!-- Match0_2 -->
<g id="node7" class="node">
<title>Match0_2</title>
<polygon fill="none" stroke="black" points="315.5,-468 179.5,-468 179.5,-432 315.5,-432 315.5,-468"/>
<text text-anchor="middle" x="247.5" y="-444.95" font-family="Times New Roman,serif" font-size="14.00">INFO3B vs AGRO1B</text>
</g>
<!-- Match1_1 -->
<g id="node12" class="node">
<title>Match1_1</title>
<polygon fill="none" stroke="black" points="478.25,-360 424.25,-360 424.25,-324 478.25,-324 478.25,-360"/>
</g>
<!-- Match0_2&#45;&gt;Match1_1 -->
<g id="edge9" class="edge">
<title>Match0_2&#45;&gt;Match1_1</title>
<path fill="none" stroke="black" d="M282.72,-431.68C319.2,-412.15 376.73,-381.35 413.98,-361.42"/>
<polygon fill="black" stroke="black" points="415.41,-364.62 422.58,-356.81 412.11,-358.45 415.41,-364.62"/>
</g>
<!-- Team4 -->
<g id="node8" class="node">
<title>Team4</title>
<polygon fill="none" stroke="black" points="67,-576 3.75,-576 3.75,-540 67,-540 67,-576"/>
<text text-anchor="middle" x="35.38" y="-552.95" font-family="Times New Roman,serif" font-size="14.00">INFO3B</text>
</g>
<!-- Team4&#45;&gt;Match0_2 -->
<g id="edge5" class="edge">
<title>Team4&#45;&gt;Match0_2</title>
<path fill="none" stroke="black" d="M67.38,-542.06C102.56,-523.98 160.28,-494.31 200.67,-473.56"/>
<polygon fill="black" stroke="black" points="202.15,-476.73 209.45,-469.05 198.95,-470.5 202.15,-476.73"/>
</g>
<!-- Team5 -->
<g id="node9" class="node">
<title>Team5</title>
<polygon fill="none" stroke="black" points="70.38,-468 0.38,-468 0.38,-432 70.38,-432 70.38,-468"/>
<text text-anchor="middle" x="35.38" y="-444.95" font-family="Times New Roman,serif" font-size="14.00">AGRO1B</text>
</g>
<!-- Team5&#45;&gt;Match0_2 -->
<g id="edge6" class="edge">
<title>Team5&#45;&gt;Match0_2</title>
<path fill="none" stroke="black" d="M70.6,-450C96.93,-450 134.37,-450 167.95,-450"/>
<polygon fill="black" stroke="black" points="167.65,-453.5 177.65,-450 167.65,-446.5 167.65,-453.5"/>
</g>
<!-- Match0_3 -->
<g id="node10" class="node">
<title>Match0_3</title>
<polygon fill="none" stroke="black" points="287,-360 208,-360 208,-324 287,-324 287,-360"/>
<text text-anchor="middle" x="247.5" y="-336.95" font-family="Times New Roman,serif" font-size="14.00">Bye vs Bye</text>
</g>
<!-- Match0_3&#45;&gt;Match1_1 -->
<g id="edge10" class="edge">
<title>Match0_3&#45;&gt;Match1_1</title>
<path fill="none" stroke="black" d="M287.4,-342C323.51,-342 376.92,-342 412.61,-342"/>
<polygon fill="black" stroke="black" points="412.48,-345.5 422.48,-342 412.48,-338.5 412.48,-345.5"/>
</g>
<!-- Match2_0 -->
<g id="node13" class="node">
<title>Match2_0</title>
<polygon fill="none" stroke="black" points="640.25,-306 586.25,-306 586.25,-270 640.25,-270 640.25,-306"/>
</g>
<!-- Match1_0&#45;&gt;Match2_0 -->
<g id="edge11" class="edge">
<title>Match1_0&#45;&gt;Match2_0</title>
<path fill="none" stroke="black" d="M478.67,-242.92C504.96,-251.79 545.53,-265.48 575.06,-275.45"/>
<polygon fill="black" stroke="black" points="573.76,-278.7 584.36,-278.59 576,-272.07 573.76,-278.7"/>
</g>
<!-- Match1_1&#45;&gt;Match2_0 -->
<g id="edge12" class="edge">
<title>Match1_1&#45;&gt;Match2_0</title>
<path fill="none" stroke="black" d="M478.67,-333.08C504.96,-324.21 545.53,-310.52 575.06,-300.55"/>
<polygon fill="black" stroke="black" points="576,-303.93 584.36,-297.41 573.76,-297.3 576,-303.93"/>
</g>
</g>
</svg>
