<?xml version="1.0" encoding="UTF-8" standalone="no"?>
<!DOCTYPE svg PUBLIC "-//W3C//DTD SVG 1.1//EN"
 "http://www.w3.org/Graphics/SVG/1.1/DTD/svg11.dtd">
<!-- Generated by graphviz version 2.43.0 (0)
 -->
<!-- Title: %3 Pages: 1 -->
<svg width="533pt" height="368pt"
 viewBox="0.00 0.00 533.00 368.00" xmlns="http://www.w3.org/2000/svg" xmlns:xlink="http://www.w3.org/1999/xlink">
<g id="graph0" class="graph" transform="scale(1 1) rotate(0) translate(4 364)">
<title>%3</title>
<polygon fill="white" stroke="transparent" points="-4,4 -4,-364 529,-364 529,4 -4,4"/>
<!-- Team0 -->
<g id="node1" class="node">
<title>Team0</title>
<polygon fill="none" stroke="black" points="127,-360 2,-360 2,-324 127,-324 127,-360"/>
<text text-anchor="middle" x="64.5" y="-338.3" font-family="Times,serif" font-size="14.00">INFO6A (2 pts)</text>
</g>
<!-- Match0_0 -->
<g id="node5" class="node">
<title>Match0_0</title>
<ellipse fill="none" stroke="black" cx="300" cy="-234" rx="27" ry="18"/>
</g>
<!-- Team0&#45;&gt;Match0_0 -->
<g id="edge1" class="edge">
<title>Team0&#45;&gt;Match0_0</title>
<path fill="none" stroke="black" d="M104.58,-323.92C150.59,-302.64 226.06,-267.74 268.15,-248.27"/>
<polygon fill="black" stroke="black" points="269.75,-251.39 277.36,-244.01 266.81,-245.03 269.75,-251.39"/>
</g>
<!-- Team1 -->
<g id="node2" class="node">
<title>Team1</title>
<polygon fill="none" stroke="black" points="129,-252 0,-252 0,-216 129,-216 129,-252"/>
<text text-anchor="middle" x="64.5" y="-230.3" font-family="Times,serif" font-size="14.00">AGRO6A (2 pts)</text>
</g>
<!-- Team1&#45;&gt;Match0_0 -->
<g id="edge2" class="edge">
<title>Team1&#45;&gt;Match0_0</title>
<path fill="none" stroke="black" d="M129.3,-234C172.13,-234 227.02,-234 262.59,-234"/>
<polygon fill="black" stroke="black" points="262.98,-237.5 272.98,-234 262.98,-230.5 262.98,-237.5"/>
</g>
<!-- Team2 -->
<g id="node3" class="node">
<title>Team2</title>
<polygon fill="none" stroke="black" points="127,-144 2,-144 2,-108 127,-108 127,-144"/>
<text text-anchor="middle" x="64.5" y="-122.3" font-family="Times,serif" font-size="14.00">INFO4B (1 pts)</text>
</g>
<!-- Match0_1 -->
<g id="node6" class="node">
<title>Match0_1</title>
<ellipse fill="none" stroke="black" cx="300" cy="-126" rx="27" ry="18"/>
</g>
<!-- Team2&#45;&gt;Match0_1 -->
<g id="edge3" class="edge">
<title>Team2&#45;&gt;Match0_1</title>
<path fill="none" stroke="black" d="M127.15,-126C170.32,-126 226.52,-126 262.69,-126"/>
<polygon fill="black" stroke="black" points="262.78,-129.5 272.78,-126 262.78,-122.5 262.78,-129.5"/>
</g>
<!-- Team3 -->
<g id="node4" class="node">
<title>Team3</title>
<polygon fill="none" stroke="black" points="127,-36 2,-36 2,0 127,0 127,-36"/>
<text text-anchor="middle" x="64.5" y="-14.3" font-family="Times,serif" font-size="14.00">INFO4A (1 pts)</text>
</g>
<!-- Team3&#45;&gt;Match0_1 -->
<g id="edge4" class="edge">
<title>Team3&#45;&gt;Match0_1</title>
<path fill="none" stroke="black" d="M104.58,-36.08C150.59,-57.36 226.06,-92.26 268.15,-111.73"/>
<polygon fill="black" stroke="black" points="266.81,-114.97 277.36,-115.99 269.75,-108.61 266.81,-114.97"/>
</g>
<!-- Match1_0 -->
<g id="node7" class="node">
<title>Match1_0</title>
<ellipse fill="none" stroke="black" cx="498" cy="-180" rx="27" ry="18"/>
</g>
<!-- Match0_0&#45;&gt;Match1_0 -->
<g id="edge5" class="edge">
<title>Match0_0&#45;&gt;Match1_0</title>
<path fill="none" stroke="black" d="M325.43,-227.27C360.17,-217.7 423.98,-200.12 463.22,-189.31"/>
<polygon fill="black" stroke="black" points="464.17,-192.68 472.88,-186.65 462.31,-185.93 464.17,-192.68"/>
</g>
<!-- Match0_1&#45;&gt;Match1_0 -->
<g id="edge6" class="edge">
<title>Match0_1&#45;&gt;Match1_0</title>
<path fill="none" stroke="black" d="M325.43,-132.73C360.17,-142.3 423.98,-159.88 463.22,-170.69"/>
<polygon fill="black" stroke="black" points="462.31,-174.07 472.88,-173.35 464.17,-167.32 462.31,-174.07"/>
</g>
</g>
</svg>
