<?xml version="1.0" encoding="UTF-8" standalone="no"?>
<!DOCTYPE svg PUBLIC "-//W3C//DTD SVG 1.1//EN"
 "http://www.w3.org/Graphics/SVG/1.1/DTD/svg11.dtd">
<!-- Generated by graphviz version 2.43.0 (0)
 -->
<!-- Title: %3 Pages: 1 -->
<svg width="331pt" height="152pt"
 viewBox="0.00 0.00 331.00 152.00" xmlns="http://www.w3.org/2000/svg" xmlns:xlink="http://www.w3.org/1999/xlink">
<g id="graph0" class="graph" transform="scale(1 1) rotate(0) translate(4 148)">
<title>%3</title>
<polygon fill="white" stroke="transparent" points="-4,4 -4,-148 327,-148 327,4 -4,4"/>
<!-- Team0 -->
<g id="node1" class="node">
<title>Team0</title>
<polygon fill="none" stroke="black" points="125,-144 0,-144 0,-108 125,-108 125,-144"/>
<text text-anchor="middle" x="62.5" y="-122.3" font-family="Times,serif" font-size="14.00">INFO6A (0 pts)</text>
</g>
<!-- Match0_0 -->
<g id="node3" class="node">
<title>Match0_0</title>
<ellipse fill="none" stroke="black" cx="296" cy="-72" rx="27" ry="18"/>
</g>
<!-- Team0&#45;&gt;Match0_0 -->
<g id="edge1" class="edge">
<title>Team0&#45;&gt;Match0_0</title>
<path fill="none" stroke="black" d="M125.23,-111.6C168.51,-101.5 224.78,-88.38 260.4,-80.07"/>
<polygon fill="black" stroke="black" points="261.37,-83.44 270.31,-77.76 259.78,-76.62 261.37,-83.44"/>
</g>
<!-- Team1 -->
<g id="node2" class="node">
<title>Team1</title>
<polygon fill="none" stroke="black" points="125,-36 0,-36 0,0 125,0 125,-36"/>
<text text-anchor="middle" x="62.5" y="-14.3" font-family="Times,serif" font-size="14.00">INFO4B (0 pts)</text>
</g>
<!-- Team1&#45;&gt;Match0_0 -->
<g id="edge2" class="edge">
<title>Team1&#45;&gt;Match0_0</title>
<path fill="none" stroke="black" d="M125.23,-32.4C168.51,-42.5 224.78,-55.62 260.4,-63.93"/>
<polygon fill="black" stroke="black" points="259.78,-67.38 270.31,-66.24 261.37,-60.56 259.78,-67.38"/>
</g>
</g>
</svg>
